<svg version="1.1" id="Layer_1" xmlns="http://www.w3.org/2000/svg" xmlns:xlink="http://www.w3.org/1999/xlink" x="0px" y="0px"
	 width="100%" viewBox="0 0 512 512" enable-background="new 0 0 512 512" xml:space="preserve">
<path fill="#55AAFF" opacity="1.000000" stroke="none" 
	d="
M225.000000,0.999999 
	C246.020889,1.000000 267.041779,1.000000 288.190369,1.329780 
	C289.152100,2.103324 289.946838,2.818868 290.826721,2.946316 
	C296.152924,3.717785 301.586304,3.955215 306.822845,5.104624 
	C332.529785,10.747216 357.184601,19.263664 380.342926,32.002804 
	C407.501190,46.942280 430.963104,66.253326 451.268616,89.649887 
	C467.065674,107.851761 479.968201,127.783638 489.979919,149.677094 
	C500.696472,173.111847 508.131134,197.451157 511.082336,223.108292 
	C511.162292,223.803192 512.336182,224.372253 513.000000,225.000000 
	C513.000000,246.020889 513.000000,267.041779 512.670227,288.190369 
	C511.896698,289.152100 511.198608,289.943359 511.049896,290.827087 
	C509.970673,297.238342 509.287781,303.728455 507.948242,310.081604 
	C502.744934,334.760406 494.141083,358.178253 481.999695,380.343262 
	C466.855133,407.990753 447.076904,431.734070 423.271637,452.309143 
	C408.409943,465.154175 392.253906,476.039703 374.830322,484.957794 
	C348.392578,498.489838 320.538361,507.709381 290.891571,511.082245 
	C290.197296,511.161224 289.627716,512.336182 289.000000,513.000000 
	C267.979095,513.000000 246.958206,513.000000 225.809631,512.670166 
	C224.847870,511.896637 224.056610,511.198547 223.172867,511.049805 
	C216.761719,509.970581 210.279388,509.258301 203.917282,507.953522 
	C179.187790,502.881805 155.834946,494.079620 133.662460,481.987183 
	C105.987274,466.893677 82.265900,447.076660 61.690968,423.271851 
	C48.845970,408.410400 37.963894,392.252899 29.041660,374.831726 
	C15.502303,348.395416 6.251878,320.550690 2.917640,290.891418 
	C2.839671,290.197845 1.663782,289.627716 1.000001,289.000000 
	C1.000000,267.979095 1.000000,246.958206 1.329805,225.809616 
	C2.103355,224.847702 2.801390,224.056290 2.950166,223.172424 
	C4.029374,216.761078 4.741602,210.278519 6.046527,203.916245 
	C11.118760,179.186111 19.919983,155.831955 32.013515,133.659149 
	C47.108337,105.983673 66.926384,82.261406 90.732910,61.686958 
	C105.595085,48.842533 121.753532,37.961777 139.175720,29.039698 
	C165.610413,15.502229 193.450302,6.246652 223.108551,2.917631 
	C223.802048,2.839789 224.372269,1.663780 225.000000,0.999999 
M356.524414,159.994095 
	C360.633942,157.843872 364.743500,155.693649 368.839722,153.550400 
	C368.674744,152.761948 368.675262,152.236282 368.461914,151.820312 
	C357.796417,131.025528 342.046600,115.657303 320.211243,106.874146 
	C298.844055,98.279297 276.593231,96.447281 253.945190,99.014381 
	C217.999954,103.088699 189.806427,120.096230 170.447311,150.836945 
	C154.618835,175.971283 146.424591,203.741547 143.665497,233.182343 
	C140.014755,272.137665 144.123169,309.994843 160.262482,346.030487 
	C168.901550,365.319733 180.571854,382.343048 198.048630,394.822510 
	C219.126099,409.873138 242.854950,416.247894 268.508667,416.412445 
	C298.154816,416.602600 325.254852,409.641296 347.486053,388.701080 
	C357.782227,379.002777 365.950562,367.837799 371.811584,354.474518 
	C360.760132,350.303131 350.073547,346.166077 339.273804,342.349030 
	C338.162231,341.956177 335.931091,343.089050 334.985901,344.178772 
	C332.268036,347.312195 330.114899,350.931305 327.437683,354.104645 
	C300.080444,386.532013 248.855331,389.880493 218.004456,360.813263 
	C201.077240,344.864716 192.561630,324.015198 187.065353,301.913788 
	C181.460449,279.375610 180.589798,256.416779 183.188049,233.429916 
	C185.420181,213.682129 189.512833,194.409637 199.529785,176.738251 
	C218.151169,143.887314 249.121170,128.711761 285.980011,134.956696 
	C297.069092,136.835495 307.185822,141.019547 315.351624,148.836029 
	C321.217773,154.451202 326.804932,160.453201 331.804047,166.840302 
	C334.478912,170.257828 336.361908,170.658340 339.901978,168.597244 
	C345.074921,165.585464 350.525055,163.049820 356.524414,159.994095 
z"/>
<path fill="#000000" opacity="1.000000" stroke="none" 
	d="
M513.000000,224.531342 
	C512.336182,224.372253 511.162292,223.803192 511.082336,223.108292 
	C508.131134,197.451157 500.696472,173.111847 489.979919,149.677094 
	C479.968201,127.783638 467.065674,107.851761 451.268616,89.649887 
	C430.963104,66.253326 407.501190,46.942280 380.342926,32.002804 
	C357.184601,19.263664 332.529785,10.747216 306.822845,5.104624 
	C301.586304,3.955215 296.152924,3.717785 290.826721,2.946316 
	C289.946838,2.818868 289.152100,2.103324 288.658997,1.329780 
	C363.593719,1.000000 438.187408,1.000000 513.000000,1.000000 
	C513.000000,75.354088 513.000000,149.708389 513.000000,224.531342 
z"/>
<path fill="#000000" opacity="1.000000" stroke="none" 
	d="
M289.468658,513.000000 
	C289.627716,512.336182 290.197296,511.161224 290.891571,511.082245 
	C320.538361,507.709381 348.392578,498.489838 374.830322,484.957794 
	C392.253906,476.039703 408.409943,465.154175 423.271637,452.309143 
	C447.076904,431.734070 466.855133,407.990753 481.999695,380.343262 
	C494.141083,358.178253 502.744934,334.760406 507.948242,310.081604 
	C509.287781,303.728455 509.970673,297.238342 511.049896,290.827087 
	C511.198608,289.943359 511.896698,289.152100 512.670227,288.658997 
	C513.000000,363.593719 513.000000,438.187408 513.000000,513.000000 
	C438.645905,513.000000 364.291626,513.000000 289.468658,513.000000 
z"/>
<path fill="#000000" opacity="1.000000" stroke="none" 
	d="
M224.531342,0.999999 
	C224.372269,1.663780 223.802048,2.839789 223.108551,2.917631 
	C193.450302,6.246652 165.610413,15.502229 139.175720,29.039698 
	C121.753532,37.961777 105.595085,48.842533 90.732910,61.686958 
	C66.926384,82.261406 47.108337,105.983673 32.013515,133.659149 
	C19.919983,155.831955 11.118760,179.186111 6.046527,203.916245 
	C4.741602,210.278519 4.029374,216.761078 2.950166,223.172424 
	C2.801390,224.056290 2.103355,224.847702 1.329805,225.340958 
	C1.000000,150.406296 1.000000,75.812576 1.000000,1.000000 
	C75.354088,1.000000 149.708389,1.000000 224.531342,0.999999 
z"/>
<path fill="#000000" opacity="1.000000" stroke="none" 
	d="
M1.000001,289.468658 
	C1.663782,289.627716 2.839671,290.197845 2.917640,290.891418 
	C6.251878,320.550690 15.502303,348.395416 29.041660,374.831726 
	C37.963894,392.252899 48.845970,408.410400 61.690968,423.271851 
	C82.265900,447.076660 105.987274,466.893677 133.662460,481.987183 
	C155.834946,494.079620 179.187790,502.881805 203.917282,507.953522 
	C210.279388,509.258301 216.761719,509.970581 223.172867,511.049805 
	C224.056610,511.198547 224.847870,511.896637 225.340973,512.670166 
	C150.406296,513.000000 75.812599,513.000000 1.000000,513.000000 
	C1.000000,438.645905 1.000000,364.291626 1.000001,289.468658 
z"/>
<path fill="#555656" opacity="1.000000" stroke="none" 
	d="
M356.190735,160.152649 
	C350.525055,163.049820 345.074921,165.585464 339.901978,168.597244 
	C336.361908,170.658340 334.478912,170.257828 331.804047,166.840302 
	C326.804932,160.453201 321.217773,154.451202 315.351624,148.836029 
	C307.185822,141.019547 297.069092,136.835495 285.980011,134.956696 
	C249.121170,128.711761 218.151169,143.887314 199.529785,176.738251 
	C189.512833,194.409637 185.420181,213.682129 183.188049,233.429916 
	C180.589798,256.416779 181.460449,279.375610 187.065353,301.913788 
	C192.561630,324.015198 201.077240,344.864716 218.004456,360.813263 
	C248.855331,389.880493 300.080444,386.532013 327.437683,354.104645 
	C330.114899,350.931305 332.268036,347.312195 334.985901,344.178772 
	C335.931091,343.089050 338.162231,341.956177 339.273804,342.349030 
	C350.073547,346.166077 360.760132,350.303131 371.811584,354.474518 
	C365.950562,367.837799 357.782227,379.002777 347.486053,388.701080 
	C325.254852,409.641296 298.154816,416.602600 268.508667,416.412445 
	C242.854950,416.247894 219.126099,409.873138 198.048630,394.822510 
	C180.571854,382.343048 168.901550,365.319733 160.262482,346.030487 
	C144.123169,309.994843 140.014755,272.137665 143.665497,233.182343 
	C146.424591,203.741547 154.618835,175.971283 170.447311,150.836945 
	C189.806427,120.096230 217.999954,103.088699 253.945190,99.014381 
	C276.593231,96.447281 298.844055,98.279297 320.211243,106.874146 
	C342.046600,115.657303 357.796417,131.025528 368.461914,151.820312 
	C368.675262,152.236282 368.674744,152.761948 368.839722,153.550400 
	C364.743500,155.693649 360.633942,157.843872 356.190735,160.152649 
z"/>
</svg>